<svg width="697" height="1477" viewBox="0 0 697 1477" fill="none" xmlns="http://www.w3.org/2000/svg">
<g opacity="0.2">
<path d="M712.921 632.941V646.526L724.654 653.319L736.387 646.526V632.941L724.654 626.148L712.921 632.941ZM757.074 620.899V658.259L724.654 677.093L692.235 658.568V620.899L724.654 602.065L757.074 620.899Z" fill="#C6A06C"/>
<path d="M724.654 676.167L755.53 657.95V621.517L724.654 603.3L693.778 621.517V657.95L724.654 676.167ZM673.092 609.784L724.654 578.908L776.217 609.784V669.374L724.346 700.25L672.783 669.374L673.092 609.784Z" fill="#C6A06C"/>
<path d="M724.654 699.015L775.908 668.139V610.093L724.654 579.217L673.401 610.093V669.374L724.654 699.015ZM653.64 598.977L724.654 557.912L795.36 598.668V679.563L724.346 720.319L653.64 679.563V598.977Z" fill="#C6A06C"/>
<path d="M724.654 721.863L795.977 679.563V598.669L724.963 557.604L653.64 598.669V679.563L724.654 721.863ZM634.497 586.936L724.654 535.065L814.812 586.936V691.914L724.654 743.785L634.497 691.914V586.936Z" fill="#C6A06C"/>
<path d="M724.654 744.711L815.429 692.222V586.936L724.654 534.447L633.88 586.936V691.913L724.654 744.711ZM615.354 576.747L724.654 514.995L833.955 576.747V703.029L724.654 764.78L615.354 703.029V576.747Z" fill="#C6A06C"/>
<path d="M724.654 767.559L835.19 703.646V575.821L724.654 511.908L614.119 575.821V703.646L724.654 767.559ZM596.211 565.632L724.963 491.53L853.406 565.632V714.144L724.654 788.246L596.211 714.144V565.632Z" fill="#C6A06C"/>
<path d="M724.654 790.407L854.95 715.07V564.397L724.654 489.06L594.358 564.397V715.07L724.654 790.407ZM576.759 554.516L724.654 469.299L872.24 554.516V725.259L724.654 810.477L577.068 725.259L576.759 554.516Z" fill="#C6A06C"/>
<path d="M724.654 813.255L874.711 726.495V552.973L724.654 466.52L574.598 552.973V726.495L724.654 813.255ZM557.616 543.401L724.654 447.069L891.692 543.401V736.375L724.654 833.942L557.616 737.61V543.401Z" fill="#C6A06C"/>
<path d="M724.654 836.103L894.471 737.918V541.548L724.654 443.363L554.838 541.548V737.918L724.654 836.103ZM539.4 532.286L724.654 424.838L909.909 532.286V748.416L724.654 855.864L539.4 748.416V532.286Z" fill="#C6A06C"/>
<path d="M724.654 858.951L914.232 749.342V530.124L724.654 420.824L535.077 530.433V749.342L724.654 858.951ZM519.331 521.171L724.654 401.681L931.522 521.171V758.296L724.654 877.168L519.331 758.605V521.171Z" fill="#C6A06C"/>
<path d="M724.654 881.799L933.992 760.766V518.7L724.654 397.976L515.317 519.009V760.766L724.654 881.799ZM499.261 510.055L724.037 380.377L948.504 510.055V769.412L723.728 899.09L499.261 769.72V510.055Z" fill="#C6A06C"/>
<path d="M724.655 904.339L954.062 772.19V507.276L724.655 375.128L495.556 507.585V772.19L724.655 904.339ZM480.736 498.94L724.655 358.146L968.573 498.94V780.527L724.655 921.32L480.736 780.527V498.94Z" fill="#C6A06C"/>
<path d="M724.654 926.569L973.513 782.688V496.161L724.654 352.28L475.795 496.161V783.615L724.654 926.569ZM461.593 487.825L724.654 335.916L987.716 487.825V791.642L724.654 943.551L461.593 791.642C461.593 791.642 461.593 488.133 461.593 487.825Z" fill="#C6A06C"/>
<path d="M724.654 950.035L993.274 795.656V484.737L724.654 330.358L456.035 484.737V795.039L724.654 950.035ZM442.45 476.709L724.963 313.685L1007.17 476.709V802.758L724.654 965.782L442.45 803.066C442.45 803.066 442.45 477.018 442.45 476.709Z" fill="#C6A06C"/>
<path d="M724.654 972.883L1013.03 806.154V473.313L724.654 306.584L437.51 473.313V806.463L724.654 972.883ZM422.998 465.594L724.654 291.455L1026 465.594V813.873L724.654 988.321L423.307 814.182C423.307 814.182 422.998 465.903 422.998 465.594Z" fill="#C6A06C"/>
<path d="M724.654 995.731L1033.41 817.887V461.889L724.654 284.045L415.897 461.889V817.887L724.654 995.731ZM403.855 454.479L724.654 269.224L1045.45 454.479V824.988L724.654 1010.24L403.855 824.988C403.855 824.988 403.855 454.788 403.855 454.479Z" fill="#C6A06C"/>
<path d="M724.655 1019.2L1052.56 829.928V450.465L724.655 260.888L396.754 450.465V829.31L724.655 1019.2ZM385.021 443.981L724.655 247.302L1064.29 443.672C1064.29 443.672 1064.29 836.103 1064.29 836.412L724.655 1032.78L385.021 836.721C385.021 836.721 384.712 443.672 384.712 443.363L385.021 443.981Z" fill="#C6A06C"/>
<path d="M724.654 1041.43L1072.32 840.735V439.35L724.654 238.348L375.758 439.041V840.426L724.654 1041.43ZM365.569 432.557L724.654 224.763L1083.74 432.557C1083.74 432.557 1083.74 847.219 1083.74 847.527L724.654 1054.7L365.569 847.219V432.557Z" fill="#C6A06C"/>
<path d="M724.654 1064.28L1092.08 852.159V427.617L724.654 216.426L357.233 427.617V851.85L724.654 1064.28ZM344.882 421.133L724.654 202.841L1102.88 421.133C1102.88 421.133 1102.88 858.025 1102.88 858.334L724.654 1076.93L344.882 858.334C344.882 858.334 344.882 421.442 344.882 421.133Z" fill="#C6A06C"/>
<path d="M724.654 1087.12L1112.15 864.818V416.193L724.654 192.652L337.472 416.193V864.818L724.654 1087.12ZM326.974 410.018L724.654 180.611L1122.33 410.018V869.14L724.654 1099.16L327.283 869.449C327.283 869.449 326.974 410.326 326.974 410.018Z" fill="#C6A06C"/>
<path d="M724.655 1109.97L1131.6 875.007V404.769L724.655 169.804L317.712 404.769V874.698L724.655 1109.97ZM307.523 399.829L724.655 158.998L1141.48 399.52V880.873L724.655 1121.09L307.832 880.564V399.211L307.523 399.829Z" fill="#C6A06C"/>
<path d="M724.654 1132.51L1151.36 885.505V391.492L724.654 144.486L297.951 391.492V885.505L724.654 1132.51ZM288.38 388.096L724.654 136.15L1160.62 387.787V891.371L724.654 1142.7L288.688 891.68L288.38 388.096Z" fill="#C6A06C"/>
<path d="M724.654 1155.36L1171.12 897.546V381.921L724.654 123.799L278.191 381.921V897.546L724.654 1155.36ZM269.237 376.981L724.654 113.919L1178.53 376.672V901.56L724.654 1165.55L269.546 902.795L269.237 376.981Z" fill="#C6A06C"/>
<path d="M724.655 1178.21L1190.88 908.97V370.805L724.655 101.26L258.43 370.805V908.97L724.655 1178.21ZM250.094 365.865L724.655 92.9235L1199.22 366.792C1199.22 366.792 1199.22 914.528 1199.22 914.836L724.655 1187.78L250.403 913.91L250.094 365.865Z" fill="#C6A06C"/>
<path d="M724.654 1201.05L1209.4 920.394V359.073L724.654 78.4118L238.67 359.073V920.394L724.654 1201.05ZM230.642 354.75L724.654 69.4578L1218.67 354.441C1218.67 354.441 1218.67 924.408 1218.67 924.717L724.654 1210.01L230.951 926.569C230.951 926.569 230.951 355.059 230.951 354.75H230.642Z" fill="#C6A06C"/>
<path d="M724.654 1223.9L1230.4 931.818V347.649L724.654 55.5639L218.909 347.649V931.818L724.654 1223.9ZM211.499 343.635L724.654 47.2275L1237.5 343.326C1237.5 343.326 1237.5 935.523 1237.5 935.832L724.654 1232.24L211.808 936.141C211.808 936.141 211.499 343.944 211.499 343.635Z" fill="#C6A06C"/>
<path d="M724.654 1246.75L1249.54 943.242V336.225L724.654 32.7158L199.766 336.225V943.242L724.654 1246.75ZM192.356 332.52L724.654 23.7618L1256.64 330.976C1256.64 330.976 1256.64 945.404 1256.64 945.712L724.346 1254.47L192.665 947.256C192.665 947.256 192.356 332.828 192.356 332.52Z" fill="#C6A06C"/>
<path d="M724.654 1269.6L1271.16 954.666V324.801L724.654 10.1765L179.388 324.801V954.666L724.654 1269.6ZM173.213 321.404L724.654 2.7663L1276.1 321.095C1276.1 321.095 1276.1 957.754 1276.1 958.063L724.654 1276.7L173.522 957.445C173.522 957.445 173.213 321.713 173.213 321.404Z" fill="#C6A06C"/>
<path d="M724.654 1292.45L1289.68 966.09V313.377L724.654 -12.6715L159.628 313.377V966.09L724.654 1292.45ZM154.07 309.054L724.654 -19.1555L1295.24 309.054C1295.24 309.054 1295.24 967.943 1295.24 968.252L724.654 1298.93L154.07 969.487V309.054Z" fill="#C6A06C"/>
<path d="M724.654 1315.3L1309.75 977.514V301.952L724.654 -35.5197L139.867 301.952V977.514L724.654 1315.3ZM134.618 299.174L724.654 -40.4598L1314.38 299.174V980.293L724.346 1319.93L134.618 980.293C134.618 980.293 134.618 299.482 134.618 299.174Z" fill="#C6A06C"/>
<path d="M724.655 1338.14L1329.51 988.321V290.528L724.655 -58.3678L120.107 290.837V988.321L724.655 1338.14ZM115.476 288.367L724.655 -63.6167L1332.91 287.75C1332.91 287.75 1332.91 990.791 1332.91 991.1L724.655 1343.39L115.784 991.717C115.784 991.717 115.476 288.367 115.476 288.058V288.367Z" fill="#C6A06C"/>
<path d="M724.654 1360.68L1349.27 1000.36V278.178L724.654 -81.2159L100.346 278.178V1000.36L724.654 1360.68ZM96.3323 278.178L724.654 -85.8473L1352.98 278.178C1352.98 278.178 1352.98 1003.45 1352.98 1003.76L724.654 1365.31L97.876 1002.83L96.3323 278.178Z" fill="#C6A06C"/>
<path d="M724.654 1383.53L1368.72 1013.02V267.989L724.654 -104.064L80.2771 266.445V1011.79L724.654 1383.53ZM76.2632 265.828L724.654 -108.078L1373.05 265.519C1373.05 265.519 1373.05 1013.02 1373.05 1013.33L724.654 1387.24L76.2632 1013.64C76.2632 1013.64 76.8807 266.137 76.8807 265.828H76.2632Z" fill="#C6A06C"/>
<path d="M724.654 1406.38L1388.48 1022.9V256.565L724.654 -126.912L60.8251 256.565V1023.21L724.654 1406.38ZM57.7375 254.713L724.654 -130.308L1391.26 254.404C1391.26 254.404 1391.26 1024.14 1391.26 1024.45L724.654 1409.78L58.0463 1025.06C58.0463 1025.06 57.7375 255.021 57.7375 254.713Z" fill="#C6A06C"/>
<path d="M724.654 1429.23L1408.55 1034.63V245.141L724.654 -149.76L41.0648 245.141V1034.63L724.654 1429.23ZM38.5947 243.597L724.654 -152.539L1410.71 243.289C1410.71 243.289 1410.71 1035.25 1410.71 1035.56L724.654 1432.01L38.9035 1036.18C38.9035 1036.18 38.5947 243.906 38.5947 243.597Z" fill="#C6A06C"/>
<path d="M724.655 1451.46L1428.31 1045.75V233.717L724.655 -172.608L21.3045 233.717V1046.06L724.655 1451.46ZM19.4519 232.482L724.655 -174.769L1429.86 232.173C1429.86 232.173 1429.86 1046.37 1429.86 1046.68L724.655 1454.24L19.7607 1047.29C19.7607 1047.29 19.4519 233.1 19.4519 232.482Z" fill="#C6A06C"/>
<path d="M724.654 1474.92L1448.07 1057.17V223.528L724.654 -195.456L1.54379 222.293V1055.94L724.654 1474.92ZM0 221.367L724.654 -197L1449 221.367V1057.79L724.654 1476.47L0.308765 1058.41V221.984L0 221.367Z" fill="#C6A06C"/>
</g>
</svg>
