<svg width="166" height="21" viewBox="0 0 166 21" fill="none" xmlns="http://www.w3.org/2000/svg">
<path fill-rule="evenodd" clip-rule="evenodd" d="M16.7649 15.0912V13.4365C16.7649 12.5328 16.6076 11.91 16.2904 11.571C15.9758 11.2252 15.4133 11.0509 14.5962 11.0509H3.28714V17.4389H14.5962C15.4253 17.4389 15.9945 17.2714 16.3037 16.9324C16.6117 16.592 16.7649 15.976 16.7649 15.0912ZM16.5943 6.68915V4.7021C16.5943 4.04696 16.4557 3.59848 16.1771 3.34858C15.8985 3.09868 15.3733 2.97036 14.5948 2.97036H3.2858V8.46007H14.5948C15.3466 8.46007 15.8665 8.32363 16.1584 8.06158C16.4477 7.79952 16.5943 7.34429 16.5943 6.68915ZM0 20.1649V0.301147H15.7972C17.2661 0.301147 18.3272 0.60373 18.9737 1.21295C19.6255 1.82216 19.9468 2.80286 19.9468 4.15637V6.46491C19.9468 7.52801 19.6895 8.32364 19.163 8.85045C18.6364 9.37592 17.814 9.70957 16.689 9.85141C17.79 9.98649 18.6258 10.3836 19.2016 11.0442C19.7788 11.698 20.0627 12.5963 20.0627 13.7377V16.2705C20.0627 17.5929 19.6122 18.5669 18.7218 19.2085C17.822 19.8434 16.4624 20.1649 14.6322 20.1649H0ZM27.1622 12.7435H37.7128L32.4275 2.57862L27.1622 12.7435ZM20.0614 20.1649H23.2899L25.7892 15.2844H39.0484L41.5545 20.1649H45.1482L34.2644 0.301147H30.7573L20.0614 20.1649ZM46.4105 20.1649V0.301147H48.466L65.0603 15.36V0.301147H68.0675V20.1649H66.232L49.4164 4.77369V20.1649H46.4105ZM70.5908 20.1649V0.301147H73.874V8.81263L86.0948 0.301147H90.8802L76.6732 9.81358L92.4371 20.1649H86.9692L73.874 11.2373V20.1649H70.5908ZM108.442 3.73897H98.1849V9.26785H108.442C109.234 9.26785 109.773 9.15303 110.063 8.92204C110.355 8.6924 110.499 8.28041 110.499 7.69145V5.29781C110.499 4.71966 110.355 4.31712 110.063 4.08613C109.773 3.85514 109.234 3.73897 108.442 3.73897ZM93.6968 20.1649V0.301147H110.462C112.017 0.301147 113.144 0.60373 113.846 1.21295C114.542 1.82217 114.891 2.80285 114.891 4.14962V8.81938C114.891 10.1594 114.542 11.1347 113.846 11.7439C113.144 12.3599 112.017 12.6679 110.462 12.6679H107.905L116.948 20.1649H110.404L102.505 12.6679H98.1836V20.1649H93.6968ZM133.101 3.535H122.696V8.2669H133.101C133.893 8.2669 134.437 8.15883 134.739 7.94675C135.045 7.73468 135.195 7.36185 135.195 6.83774V4.96416C135.195 4.45085 135.045 4.07937 134.739 3.86054C134.437 3.64306 133.893 3.535 133.101 3.535ZM133.101 11.5386H122.696V16.592H133.101C133.962 16.592 134.55 16.4569 134.85 16.1948C135.154 15.9314 135.305 15.4694 135.305 14.8089V13.3014C135.305 12.6408 135.154 12.1789 134.85 11.9222C134.55 11.6669 133.962 11.5386 133.101 11.5386ZM118.21 20.1649V0.301147H135.011C136.556 0.301147 137.676 0.609134 138.366 1.22511C139.057 1.83432 139.405 2.81501 139.405 4.15637V6.57433C139.405 7.52936 139.113 8.29257 138.53 8.85721C137.949 9.42725 137.113 9.78117 136.023 9.92165C137.152 10.0689 138.017 10.4795 138.632 11.1401C139.246 11.8074 139.549 12.6733 139.549 13.7377V16.2705C139.549 17.5862 139.074 18.5669 138.126 19.2017C137.171 19.8434 135.726 20.1635 133.784 20.1635H118.21V20.1649ZM142.072 20.1649V0.301147H146.675V8.58839L157.54 0.301147H164.14L151.16 9.65959L165.737 20.1649H158.414L146.675 11.4305V20.1649H142.072Z" fill="#454748"/>
</svg>
