<svg width="31" height="55" viewBox="0 0 31 55" fill="none" xmlns="http://www.w3.org/2000/svg">
<path d="M15.3051 9.48343C18.5162 9.48343 21.1285 12.0958 21.1285 15.3068V22.7842H9.48173V15.3068C9.48173 12.0958 12.0941 9.48343 15.3051 9.48343ZM15.3051 7.86431C11.2114 7.86431 7.86261 11.2131 7.86261 15.3068V24.4033H22.7477V15.3068C22.7477 11.2131 19.3989 7.86431 15.3051 7.86431ZM22.7477 25.9987H7.86261H6.91784V27.5931H7.86261H22.7477H23.6924V25.9987H22.7477ZM21.1285 29.1876H19.6846V49.3305H21.1285V29.1876ZM10.9257 29.1876H9.48173V51.6121H10.9257V29.1876ZM17.7279 29.1876H16.2839V51.6121H17.7279V29.1876ZM14.3263 29.1876H12.8833V55H14.3272V29.1876H14.3263ZM4.45429 14.7447H0V15.8689H4.45429V14.7447ZM6.18906 9.39414L2.33174 7.167L1.76964 8.14068L5.62696 10.3678L6.18906 9.39414ZM10.3661 5.62781L8.13898 1.77049L7.1653 2.33259L9.39244 6.18991L10.3661 5.62781ZM15.8672 4.45429V0H14.743L14.7439 4.45429H15.8672ZM23.445 2.33089L22.4713 1.76879L20.245 5.62611L21.2187 6.18821L23.445 2.33089ZM28.8423 8.13813L28.2802 7.16445L24.4229 9.39244L24.985 10.3661L28.8423 8.13813ZM30.6137 15.8655V14.7413L26.1594 14.7422V15.8664L30.6137 15.8655Z" fill="#D0A770"/>
</svg>
