<svg width="46" height="38" viewBox="0 0 46 38" fill="none" xmlns="http://www.w3.org/2000/svg">
<path d="M38.7788 10.4171C36.0197 4.28313 29.8555 0 22.706 0C15.5703 0 9.41732 4.2664 6.65036 10.3799C3.07094 10.8512 0.285852 13.5341 0.0260288 16.8564C0.0106904 17.0122 0.0004648 17.1767 0 17.3594C0 17.3608 0 17.3617 0 17.3631C0 17.3635 0 17.3635 0 17.364C0 17.3649 0 17.3654 0 17.3659C0 17.5853 0.0111552 17.8019 0.032536 18.0152C0.0334656 18.024 0.0353248 18.0315 0.0362544 18.0398C0.0581 18.2457 0.088312 18.4498 0.12875 18.6501C0.132003 18.6641 0.136651 18.678 0.138975 18.6919C0.179878 18.8862 0.227752 19.0782 0.285387 19.2664C0.289106 19.2781 0.294219 19.2892 0.297472 19.3004C0.356967 19.4909 0.423898 19.6783 0.501055 19.8618C0.502914 19.867 0.505703 19.8716 0.508027 19.8763C1.46319 22.1547 3.67843 23.8675 6.38217 24.3114C8.64529 29.3428 13.2017 33.1245 18.7119 34.3227C19.0257 36.1777 20.6357 37.5921 22.5795 37.5921C24.7488 37.5921 26.5071 35.8338 26.5071 33.665C26.5071 31.4958 24.7488 29.7375 22.5795 29.7375C20.8347 29.7375 19.3571 30.8767 18.8458 32.4514C13.7711 31.2574 9.63671 27.6017 7.771 22.8194V22.2523V15.8832V12.5998C9.87189 6.36405 15.7702 1.85874 22.7055 1.85874C29.3814 1.85874 35.0971 6.03404 37.389 11.9091V24.4262C41.681 24.4262 45.16 21.2646 45.16 17.3635C45.1605 13.8933 42.407 11.013 38.7788 10.4171Z" fill="#C6A06C"/>
<path d="M22.8022 6.54993C17.0893 6.54993 12.4576 11.1817 12.4576 16.8945C12.4576 22.6078 17.0893 27.2396 22.8022 27.2396C28.515 27.2396 33.1472 22.6078 33.1472 16.8945C33.1472 11.1817 28.515 6.54993 22.8022 6.54993ZM22.8022 25.3804C18.1235 25.3804 14.3168 21.5737 14.3168 16.8945C14.3168 12.2154 18.123 8.40913 22.8022 8.40913C27.4809 8.40913 31.288 12.2154 31.288 16.8945C31.288 21.5737 27.4809 25.3804 22.8022 25.3804Z" fill="#C6A06C"/>
<path d="M21.874 15.9636H17.807V17.8228H23.7299L23.7332 11.2556H21.874V15.9636Z" fill="#C6A06C"/>
</svg>
