<svg width="46" height="31" viewBox="0 0 46 31" fill="none" xmlns="http://www.w3.org/2000/svg">
<path d="M42.3083 5.56852C40.2099 5.56852 38.4517 7.29074 38.4517 9.47222C38.4517 9.98889 38.5652 10.5056 38.7353 11.0222L30.7387 15.5574L25.0674 7.23333C26.2016 6.54444 26.9389 5.33889 26.9389 3.9037C26.9389 1.77963 25.2375 0 23.0824 0C20.984 0 19.2259 1.72222 19.2259 3.9037C19.2259 5.33889 19.9631 6.54444 21.0974 7.23333L15.4261 15.5574L7.42947 11.0222C7.59961 10.563 7.71303 10.0463 7.71303 9.47222C7.71303 7.34815 6.01163 5.56852 3.85652 5.56852C1.75812 5.56852 0 7.29074 0 9.47222C0 11.5963 1.7014 13.3759 3.85652 13.3759C3.96994 13.3759 4.14009 13.3759 4.25351 13.3759L9.35773 30.2537C9.47115 30.713 9.92486 31 10.3786 31H35.6161C36.0698 31 36.5235 30.713 36.6369 30.2537L41.7411 13.3759C41.8546 13.3759 42.0247 13.3759 42.1381 13.3759C44.2365 13.3759 45.9946 11.6537 45.9946 9.47222C46.1081 7.34815 44.4067 5.56852 42.3083 5.56852ZM42.5351 11.1944C42.4784 11.1944 42.365 11.1944 42.3083 11.1944C41.5143 11.1944 40.8904 10.6778 40.6636 9.93148C40.6069 9.81667 40.6069 9.64444 40.6069 9.47222C40.6069 8.5537 41.3441 7.75 42.3083 7.75C43.2157 7.75 44.0097 8.4963 44.0097 9.47222C44.0097 10.3333 43.3291 11.0796 42.5351 11.1944ZM23.1391 2.18148C24.0465 2.18148 24.8405 2.92778 24.8405 3.9037C24.8405 4.59259 24.4435 5.22407 23.8197 5.4537C23.5928 5.56852 23.366 5.62593 23.1391 5.62593C22.9122 5.62593 22.6287 5.56852 22.4585 5.4537C21.8347 5.16667 21.4377 4.59259 21.4377 3.9037C21.4377 2.92778 22.2317 2.18148 23.1391 2.18148ZM3.74309 11.1944C2.89239 11.0796 2.26854 10.3333 2.26854 9.47222C2.26854 8.5537 3.00582 7.75 3.96994 7.75C4.87736 7.75 5.67135 8.4963 5.67135 9.47222C5.67135 9.64444 5.67135 9.75926 5.61464 9.93148C5.44449 10.6778 4.76393 11.1944 3.96994 11.1944C3.91323 11.1944 3.85652 11.1944 3.74309 11.1944ZM34.9922 28.8185H11.286L6.52205 12.8593L15.3126 17.8537C15.7663 18.1407 16.3902 17.9685 16.7305 17.5093L23.1391 8.15185L29.5477 17.5667C29.888 18.0259 30.4551 18.1407 30.9656 17.9111L39.7562 12.9167L34.9922 28.8185Z" fill="#C6A06C"/>
</svg>
