<svg width="31" height="40" viewBox="0 0 31 40" fill="none" xmlns="http://www.w3.org/2000/svg">
<path d="M0.022054 39.5504C-0.153142 39.2876 0.722837 39.1124 2.3872 39.1124C6.63569 39.1124 6.3729 40.295 6.3729 20.8045V3.85431H3.43837C-0.63493 3.85431 -0.810126 3.06592 3.17558 2.71553C5.10273 2.54034 7.24888 1.97095 8.78184 1.27017C10.1834 0.656984 11.366 0.131397 11.4536 0.131397C11.5412 0.131397 11.6288 8.71599 11.6288 19.1839C11.6288 37.5357 11.6726 38.2365 12.461 38.6745C13.5997 39.2876 14.1253 39.2438 13.4683 38.5869C13.0741 38.1927 12.9427 33.2434 12.9427 19.0525V0L17.673 0.218995C21.2645 0.39419 22.8851 0.656984 24.6371 1.44536C30.9003 4.1609 32.8275 11.3439 28.6228 16.1618C26.2576 18.8335 22.1843 20.2789 16.8846 20.2789H14.2567V28.9511C14.2567 33.6814 14.4319 37.7985 14.6071 38.0613C14.7823 38.3241 15.5707 38.7183 16.3591 38.8934C17.1036 39.0248 17.7606 39.3752 17.7606 39.5942C17.7606 40.1636 0.372445 40.1198 0.022054 39.5504ZM20.52 18.308C21.3959 17.9138 22.4471 16.8626 23.0603 15.7676C23.9801 14.1909 24.1115 13.3587 24.1115 9.76716C24.1115 3.32872 22.6661 1.57676 17.016 1.09497L14.2567 0.875979V10.2051V19.5343L16.6218 19.2715C17.9358 19.1401 19.6878 18.7021 20.52 18.308Z" fill="#C6A06C"/>
</svg>
