<svg width="42" height="53" viewBox="0 0 42 53" fill="none" xmlns="http://www.w3.org/2000/svg">
<path d="M19.0223 42.5168C19.1337 42.561 19.2522 42.5847 19.3721 42.5868C19.5735 42.5864 19.7686 42.5165 19.9244 42.3889C20.0802 42.2613 20.1872 42.0838 20.2273 41.8864C20.2674 41.689 20.2381 41.4839 20.1444 41.3056C20.0507 41.1273 19.8984 40.9868 19.7131 40.9079L8.58163 36.116C8.36827 36.0221 8.12633 36.0168 7.90905 36.1012C7.69177 36.1857 7.51694 36.353 7.42301 36.5663C7.32909 36.7797 7.32377 37.0216 7.40822 37.2389C7.49267 37.4562 7.65998 37.631 7.87334 37.7249L19.0223 42.5168Z" fill="#C6A06C"/>
<path d="M20.1153 45.4722L5.34625 39.1064C5.13289 39.0148 4.89188 39.0117 4.67624 39.0978C4.4606 39.1839 4.28799 39.3521 4.19638 39.5655C4.10477 39.7788 4.10168 40.0199 4.18777 40.2355C4.27386 40.4511 4.44209 40.6238 4.65545 40.7154L19.4158 47.0637C19.5242 47.1078 19.6398 47.1315 19.7568 47.1337C19.9528 47.1287 20.1415 47.058 20.2925 46.9329C20.4435 46.8078 20.5481 46.6356 20.5895 46.4439C20.6309 46.2523 20.6066 46.0523 20.5206 45.876C20.4346 45.6998 20.2919 45.5576 20.1153 45.4722Z" fill="#C6A06C"/>
<path d="M22.9484 37.9172L8.18811 31.5688C7.97475 31.4772 7.73374 31.4741 7.5181 31.5602C7.30245 31.6463 7.12984 31.8145 7.03824 32.0279C6.94663 32.2413 6.94354 32.4823 7.02963 32.6979C7.11572 32.9135 7.28395 33.0862 7.49731 33.1778L22.2576 39.5261C22.3648 39.5743 22.4812 39.5982 22.5987 39.5961C22.8008 39.5977 22.9973 39.5293 23.1547 39.4023C23.3121 39.2754 23.4206 39.0979 23.4618 38.9C23.5031 38.7021 23.4745 38.496 23.3808 38.3168C23.2872 38.1376 23.1344 37.9964 22.9484 37.9172Z" fill="#C6A06C"/>
<path d="M41.9759 6.0358C41.9107 5.47006 41.6898 4.93349 41.3379 4.4858C40.9859 4.0381 40.5166 3.69684 39.9822 3.49997L32.9431 0.876687C31.091 0.0594295 29.0391 -0.193957 27.0438 0.148183C25.0485 0.490323 23.1982 1.41282 21.7242 2.80043C20.5 3.90419 19.5217 5.25312 18.8529 6.7596C18.184 8.26607 17.8395 9.8964 17.8417 11.5447L10.4091 15.6632C10.225 15.7619 10.0823 15.9232 10.0069 16.1179L0.0558927 42.4819C-0.0231475 42.6922 -0.0181958 42.9249 0.0697216 43.1317C0.157639 43.3384 0.321775 43.5034 0.528083 43.5924L20.9897 52.3979C21.0975 52.4438 21.2135 52.4676 21.3307 52.4679C21.4479 52.4676 21.5639 52.4438 21.6717 52.3979C21.7816 52.352 21.8809 52.2841 21.9636 52.1983C22.0463 52.1126 22.1107 52.0109 22.1527 51.8995L32.1036 25.518C32.1669 25.3339 32.1669 25.1338 32.1036 24.9497L29.3929 16.3803L40.5768 9.05258C41.0691 8.73119 41.4613 8.27802 41.7086 7.74467C41.956 7.21131 42.0486 6.61921 41.9759 6.0358ZM21.8641 20.5425L21.0596 17.998C21.3606 18.0066 21.6573 18.0718 21.9341 18.1903C22.6041 18.4973 23.1323 19.0475 23.4116 19.7295C23.6909 20.4115 23.7004 21.1742 23.4381 21.8629C23.2624 22.3608 22.9405 22.7941 22.5146 23.1061C22.0887 23.4181 21.5786 23.5944 21.0509 23.6118C20.7297 23.6158 20.4111 23.5533 20.1152 23.4282C19.4506 23.1118 18.9315 22.5542 18.6635 21.8687C18.3954 21.1832 18.3986 20.4213 18.6724 19.7381C18.8318 19.3068 19.0963 18.9221 19.4419 18.6188L20.2202 21.0759C20.2795 21.2586 20.3972 21.4166 20.5553 21.5256C20.7133 21.6347 20.9028 21.6887 21.0946 21.6793C21.1815 21.6925 21.27 21.6925 21.3569 21.6793C21.4653 21.6386 21.5646 21.5768 21.6489 21.4974C21.7332 21.418 21.801 21.3227 21.8481 21.2169C21.8953 21.1112 21.921 20.9971 21.9238 20.8813C21.9265 20.7656 21.9062 20.6504 21.8641 20.5425ZM30.3285 25.1858L20.841 50.4305L1.98838 42.3158L11.5371 17.0186L17.9816 13.4509C18.0812 14.1141 18.2302 14.7688 18.4276 15.4097L18.891 16.87C18.037 17.3921 17.3839 18.1869 17.0373 19.126C16.6099 20.2302 16.6188 21.4556 17.0622 22.5535C17.5055 23.6514 18.3501 24.5393 19.4244 25.0371C19.9388 25.2559 20.4919 25.369 21.0509 25.3694C21.9355 25.3605 22.796 25.0797 23.5156 24.5651C24.2352 24.0504 24.779 23.3268 25.0732 22.4925C25.4919 21.3987 25.4843 20.1876 25.0518 19.0991C24.6194 18.0107 23.7937 17.1246 22.7385 16.6164C22.2208 16.3984 21.665 16.2855 21.1033 16.2841C20.9315 16.2751 20.7593 16.2751 20.5874 16.2841L20.1152 14.8675C19.8742 14.1056 19.7159 13.3199 19.6431 12.5241L25.3618 9.36737L30.3285 25.1858ZM39.615 7.59228L28.8595 14.6489L26.6909 7.8721C26.6515 7.74758 26.5847 7.63346 26.4955 7.53813C26.4062 7.4428 26.2967 7.36868 26.175 7.32121C26.0587 7.26662 25.9319 7.23831 25.8034 7.23831C25.6749 7.23831 25.548 7.26662 25.4318 7.32121L19.6431 10.4954C19.8918 8.01908 21.0547 5.72444 22.9047 4.0596C24.1432 2.90483 25.6949 2.14119 27.3655 1.86432C29.036 1.58744 30.7512 1.80966 32.296 2.50312L39.3789 5.1264C39.6181 5.21243 39.8276 5.36524 39.9826 5.56672C40.1375 5.7682 40.2315 6.0099 40.2533 6.26316C40.2812 6.52216 40.2362 6.78381 40.1234 7.01863C40.0106 7.25346 39.8345 7.45213 39.615 7.59228Z" fill="#C6A06C"/>
</svg>
