<svg width="30" height="38" viewBox="0 0 30 38" fill="none" xmlns="http://www.w3.org/2000/svg">
<path d="M22.6454 37.2452C22.0444 37.0712 21.4354 36.3562 21.3084 35.6732C21.2244 35.2282 21.3274 34.9192 21.9634 33.6872C24.5384 28.7072 25.6574 24.1222 25.6574 18.5592C25.6574 13.1842 24.6674 8.99819 22.2054 3.98519C21.6774 2.90719 21.2454 1.90819 21.2454 1.76319C22.2993 -1.39714 24.6465 0.273148 25.6604 2.25219C27.4214 5.71119 28.6284 9.50519 29.2234 13.4552C29.5914 15.8982 29.6644 20.5312 29.3694 22.7672C28.8254 26.8962 27.7374 30.5772 25.9924 34.1852C24.9384 36.3672 24.2774 37.2632 23.7234 37.2632C23.6124 37.2632 23.4304 37.2912 23.3214 37.3252C23.2124 37.3562 22.9064 37.3222 22.6454 37.2452ZM15.4784 33.4962C14.5554 33.2272 13.8914 32.0972 14.1574 31.2482C14.2224 31.0442 14.6564 30.0982 15.1214 29.1472C17.0924 25.1262 17.9134 20.8142 17.5124 16.5812C17.1824 13.1032 16.5584 10.9092 14.9874 7.70019C13.9334 5.54719 13.8854 5.21319 14.4974 4.34619C15.0804 3.52119 16.5334 3.38719 17.2974 4.08819C17.8274 4.57519 19.4724 8.01219 20.1084 9.96019C22.2114 16.4042 21.8904 23.3202 19.1954 29.6502C17.8164 32.8912 16.8484 33.8962 15.4784 33.4962ZM8.08742 29.6942C7.51742 29.4372 7.02742 28.8352 6.89342 28.2272C6.81242 27.8572 6.95242 27.4492 7.62742 26.0802C10.1104 21.0532 10.1364 16.2092 7.70942 11.2992C6.64342 9.14219 6.61942 8.71319 7.52142 7.86119C7.96742 7.44319 8.15642 7.36819 8.78042 7.36819C9.82942 7.36819 10.3724 7.89419 11.3094 9.81919C12.7494 12.7792 13.3404 15.3442 13.3344 18.6352C13.3294 22.0162 12.7774 24.3362 11.2384 27.4552C10.3574 29.2432 9.92142 29.7142 9.03942 29.8342C8.77142 29.8722 8.34242 29.8082 8.08742 29.6942ZM1.18942 26.1522C0.738418 25.9642 0.223419 25.3512 0.0694185 24.8182C-0.100581 24.2202 0.0394185 23.7482 0.716418 22.6332C1.58742 21.1992 1.79142 20.4332 1.79142 18.5602C1.79142 16.6872 1.58842 15.9192 0.716418 14.4862C0.421418 14.0002 0.125418 13.4182 0.0574185 13.1932C-0.223581 12.2482 0.563418 11.0912 1.61942 10.8942C2.51642 10.7242 3.13142 11.1242 3.95442 12.4092C6.33942 16.1332 6.33942 21.1062 3.95342 24.7962C3.11342 26.0982 2.17442 26.5582 1.18942 26.1522Z" fill="#C6A06C"/>
</svg>
