<svg width="91" height="48" viewBox="0 0 91 48" fill="none" xmlns="http://www.w3.org/2000/svg">
<path d="M70.1755 26.4069L70.1761 26.4068C75.6594 25.4852 80.4656 23.8591 84.4806 21.5893C86.0907 20.0021 86.7192 18.5803 86.8975 17.4278C87.0035 16.7426 86.9559 16.1163 86.8287 15.565C82.8741 17.9031 78.1394 19.7571 73.0215 20.9776L70.1755 26.4069ZM70.1755 26.4069C69.3529 26.5457 68.659 27.0718 68.3588 27.8788C68.0468 28.7148 68.2251 29.6728 68.7869 30.3529C69.3471 31.0311 70.1912 31.3233 71.0439 31.1815L71.0457 31.1812C75.7467 30.3906 80.1766 29.0614 84.0085 27.2895M70.1755 26.4069L84.0085 27.2895M70.1176 17.8641C69.8615 18.7206 70.1062 19.6645 70.7113 20.3041C71.3147 20.9422 72.1774 21.1792 73.0208 20.9777L70.1176 17.8641ZM70.1176 17.8641C70.3632 17.0398 71.0189 16.4677 71.8334 16.2742C77.6405 14.8886 82.5822 12.7698 86.5441 9.99654C87.9348 8.23944 88.1435 6.12544 87.9724 4.38449C86.6902 5.72361 84.9399 6.93603 82.9558 8.08176C80.0499 9.7597 76.4625 11.3915 72.7035 13.1013L72.6729 13.1153L72.6728 13.1153C68.8021 14.8755 64.7239 16.7309 61.0816 18.7984C57.429 20.8718 54.3027 23.111 52.287 25.6003L52.287 25.6004C48.9619 29.7062 48.8094 33.5105 49.4705 36.3213C50.1393 39.1649 51.6586 41.0436 51.7667 41.1742C51.8263 41.2452 51.8702 41.312 51.9 41.361L51.9047 41.3687L51.9092 41.3765C53.006 43.2534 58.3782 48.3611 67.4435 44.4595M70.1176 17.8641L65.7072 38.8602C66.1799 39.6127 66.9772 39.9937 67.8285 39.9727L67.8285 39.9728L67.8414 39.9723C69.9805 39.8919 72.0743 39.7004 74.0947 39.3998C73.0958 41.0068 71.1642 42.8577 67.4435 44.4595M67.4435 44.4595L67.8388 45.378M67.4435 44.4595L67.8388 45.378M67.8388 45.378C72.2542 43.4772 74.3695 41.1795 75.3517 39.197L50.9998 41.816C51.0168 41.836 51.0318 41.858 51.0458 41.881C52.3448 44.104 58.2198 49.518 67.8388 45.378ZM84.0085 27.2895C83.8205 28.1638 83.4541 29.0937 82.7999 29.9965C81.7031 31.5103 79.725 33.0477 76.1674 34.0871L76.1681 34.0897C76.1581 34.0918 76.1481 34.0939 76.1381 34.0961M84.0085 27.2895L76.1381 34.0961M76.1381 34.0961C76.1492 34.0925 76.1609 34.089 76.173 34.0855L76.1739 34.0884C76.182 34.0867 76.1902 34.085 76.1983 34.0832L76.276 34.446L76.4478 35.047M76.1381 34.0961C76.0911 34.111 76.055 34.1253 76.0488 34.1277L76.4078 35.061M76.1381 34.0961C73.4583 34.6664 70.5848 35.0145 67.5924 35.1267L67.5922 35.1267C66.7557 35.1582 66.0026 35.593 65.6012 36.3509L65.6006 36.352C65.1841 37.1406 65.2377 38.1129 65.707 38.8598L76.1381 34.0961ZM76.4478 35.047L76.2865 34.4949L76.4078 35.061M76.4478 35.047C76.4338 35.051 76.4208 35.056 76.4078 35.061M76.4478 35.047L76.4078 35.061" stroke="#C6A06C" stroke-width="2"/>
<path d="M19.8814 17.8638L19.8814 17.864C20.1355 18.7183 19.8938 19.6622 19.2874 20.3032C18.6834 20.9418 17.8219 21.1794 16.9771 20.9778L19.8814 17.8638ZM19.8814 17.8638C19.6361 17.0395 18.9805 16.467 18.1668 16.2733C12.3587 14.8887 7.41774 12.7691 3.45459 9.99551C2.06388 8.23839 1.85575 6.12434 2.02714 4.3833C3.30932 5.7225 5.05969 6.93499 7.04398 8.08078C9.94988 9.75872 13.5373 11.3905 17.2962 13.1004L17.3268 13.1143C21.1976 14.875 25.2758 16.7307 28.918 18.7982C32.5706 20.8716 35.6966 23.1105 37.7117 25.5993L37.7118 25.5994C41.0368 29.7052 41.1893 33.5095 40.5282 36.3203C39.8599 39.162 38.3422 41.0401 38.2323 41.173C38.1859 41.228 38.1346 41.297 38.0872 41.3794C36.9837 43.2603 31.6116 48.3571 22.5554 44.4586C18.8358 42.8569 16.9036 41.0062 15.904 39.3991L19.8814 17.8638ZM19.8215 26.4068L19.8219 26.4069C20.6458 26.5456 21.3403 27.0719 21.6404 27.8799L20.7029 28.228M19.8215 26.4068L22.1939 38.972L22.1502 39.9711C22.1513 39.9711 22.1524 39.9712 22.1535 39.9712C23.0293 40.0084 23.8253 39.5994 24.2902 38.8607C24.7604 38.114 24.8135 37.1403 24.3972 36.352C23.9961 35.5919 23.2405 35.1582 22.4055 35.1267L22.4054 35.1267C19.4126 35.0145 16.5382 34.6673 13.8599 34.0962C13.8504 34.0932 13.8405 34.0901 13.8303 34.0872C10.2728 33.0478 8.29464 31.5103 7.19765 29.9965C6.54346 29.0937 6.17694 28.1639 5.98875 27.2896C9.82103 29.0615 14.2501 30.3906 18.9511 31.1812L18.9513 31.1812C19.807 31.3249 20.6511 31.0303 21.2106 30.3532C21.774 29.6727 21.9519 28.7142 21.6397 27.8782L20.7029 28.228M19.8215 26.4068C14.3394 25.4862 9.53221 23.8592 5.51711 21.5893M19.8215 26.4068L20.4399 29.716C20.7829 29.302 20.8859 28.718 20.7029 28.228M20.7029 28.228C20.5369 27.781 20.1549 27.477 19.6559 27.393C14.0289 26.448 9.06791 24.766 4.91091 22.395M4.91091 22.395L5.60637 21.6765C5.57628 21.6474 5.54653 21.6183 5.51711 21.5893M4.91091 22.395L5.40635 21.5264C5.4432 21.5474 5.48012 21.5684 5.51711 21.5893M4.91091 22.395L5.51711 21.5893M5.51711 21.5893C3.9071 20.0022 3.27858 18.5801 3.10028 17.4274C2.9943 16.7423 3.04183 16.1161 3.169 15.565C7.12377 17.9032 11.8593 19.7581 16.9767 20.9777L5.51711 21.5893Z" stroke="#C6A06C" stroke-width="2"/>
<path d="M71.437 19.6151C71.4373 19.6154 71.4376 19.6157 71.4379 19.616C71.7868 19.9839 72.2786 20.1259 72.7884 20.0041C72.7886 20.0041 72.7887 20.0041 72.7889 20.004C72.7894 20.0039 72.7899 20.0038 72.7904 20.0037C77.9061 18.7846 82.6114 16.9258 86.5026 14.5947L71.437 19.6151ZM71.437 19.6151L71.7594 19.3112" fill="#C8A16D" stroke="#C6A06C" stroke-width="2"/>
<mask id="path-4-inside-1" fill="white">
<path d="M18.1369 11.334C10.3199 7.77803 2.93691 4.42003 1.88991 0.519031C1.83691 0.323031 1.66691 0.182032 1.46591 0.166032C1.26291 0.152032 1.07391 0.264031 0.991912 0.449031C0.877912 0.707031 -1.76209 6.81703 2.07191 11.394C2.09791 11.426 2.12791 11.453 2.16191 11.477C6.37691 14.466 11.6089 16.721 17.7139 18.177C17.8739 18.215 17.9699 18.296 18.0079 18.423C18.0589 18.594 17.9999 18.82 17.8679 18.96C17.7539 19.081 17.6109 19.118 17.4319 19.076C11.8379 17.743 6.75091 15.635 2.71991 12.981C2.60991 12.909 2.47391 12.885 2.34491 12.916C2.21591 12.947 2.10591 13.03 2.04091 13.145C0.968911 15.037 -0.163088 18.849 4.29291 23.127C4.32091 23.154 4.35291 23.178 4.38591 23.197C8.65191 25.64 13.7369 27.37 19.4989 28.338C19.6609 28.365 19.7619 28.439 19.8089 28.564C19.8719 28.732 19.8279 28.961 19.7049 29.109C19.5999 29.237 19.4599 29.285 19.2779 29.253C13.7879 28.33 8.71491 26.654 4.60591 24.406C4.46491 24.329 4.29291 24.328 4.14991 24.404C4.00691 24.481 3.91291 24.624 3.89991 24.785C3.64191 27.852 4.51091 33.373 13.2099 35.944C13.2429 35.96 13.2779 35.972 13.3149 35.98C16.1479 36.593 19.1819 36.964 22.3329 37.082C22.4969 37.088 22.6069 37.148 22.6689 37.266C22.7529 37.424 22.7389 37.657 22.6359 37.82C22.5479 37.96 22.4139 38.027 22.2309 38.018C19.2389 37.906 16.3459 37.569 13.6349 37.016C13.4759 36.985 13.3129 37.034 13.1999 37.149C13.0869 37.264 13.0389 37.428 13.0729 37.586C13.6089 40.062 15.5549 43.576 21.7829 46.257C24.3869 47.378 26.7959 47.837 28.9589 47.837C34.3739 47.837 38.2449 44.96 39.7619 42.395C40.2419 41.789 46.5739 33.435 39.2329 24.37C34.8229 18.924 25.9579 14.891 18.1369 11.334ZM38.9999 41.816C38.9829 41.836 38.9679 41.858 38.9539 41.881C37.6539 44.104 31.7779 49.518 22.1609 45.378C16.9029 43.114 14.9059 40.287 14.1999 38.1C16.7419 38.576 19.4269 38.869 22.1949 38.973C22.7209 38.995 23.1749 38.758 23.4449 38.329C23.7309 37.874 23.7579 37.282 23.5139 36.82C23.2909 36.399 22.8739 36.146 22.3689 36.127C19.3019 36.012 16.3489 35.653 13.5909 35.062C13.5779 35.057 13.5649 35.052 13.5509 35.048C6.10991 32.874 4.80391 28.467 4.81891 25.603C8.89491 27.722 13.8199 29.305 19.1179 30.196C19.6349 30.283 20.1179 30.108 20.4409 29.717C20.7829 29.303 20.8859 28.719 20.7039 28.229C20.5369 27.782 20.1559 27.478 19.6569 27.394C14.0299 26.449 9.06891 24.767 4.91191 22.396C1.30391 18.905 1.81191 15.825 2.63891 14.067C6.68791 16.646 11.7119 18.695 17.2099 20.006C17.7209 20.129 18.2129 19.986 18.5619 19.617C18.9309 19.227 19.0729 18.651 18.9239 18.15C18.7879 17.693 18.4269 17.364 17.9359 17.247C11.9759 15.825 6.87191 13.634 2.76591 10.734C0.298911 7.74103 0.932912 3.89303 1.47091 1.99703C3.54091 5.74503 10.1749 8.76303 17.7419 12.205C25.4669 15.719 34.2229 19.702 38.4899 24.972C45.5719 33.716 39.2719 41.489 38.9999 41.816Z"/>
</mask>
<path d="M18.1369 11.334C10.3199 7.77803 2.93691 4.42003 1.88991 0.519031C1.83691 0.323031 1.66691 0.182032 1.46591 0.166032C1.26291 0.152032 1.07391 0.264031 0.991912 0.449031C0.877912 0.707031 -1.76209 6.81703 2.07191 11.394C2.09791 11.426 2.12791 11.453 2.16191 11.477C6.37691 14.466 11.6089 16.721 17.7139 18.177C17.8739 18.215 17.9699 18.296 18.0079 18.423C18.0589 18.594 17.9999 18.82 17.8679 18.96C17.7539 19.081 17.6109 19.118 17.4319 19.076C11.8379 17.743 6.75091 15.635 2.71991 12.981C2.60991 12.909 2.47391 12.885 2.34491 12.916C2.21591 12.947 2.10591 13.03 2.04091 13.145C0.968911 15.037 -0.163088 18.849 4.29291 23.127C4.32091 23.154 4.35291 23.178 4.38591 23.197C8.65191 25.64 13.7369 27.37 19.4989 28.338C19.6609 28.365 19.7619 28.439 19.8089 28.564C19.8719 28.732 19.8279 28.961 19.7049 29.109C19.5999 29.237 19.4599 29.285 19.2779 29.253C13.7879 28.33 8.71491 26.654 4.60591 24.406C4.46491 24.329 4.29291 24.328 4.14991 24.404C4.00691 24.481 3.91291 24.624 3.89991 24.785C3.64191 27.852 4.51091 33.373 13.2099 35.944C13.2429 35.96 13.2779 35.972 13.3149 35.98C16.1479 36.593 19.1819 36.964 22.3329 37.082C22.4969 37.088 22.6069 37.148 22.6689 37.266C22.7529 37.424 22.7389 37.657 22.6359 37.82C22.5479 37.96 22.4139 38.027 22.2309 38.018C19.2389 37.906 16.3459 37.569 13.6349 37.016C13.4759 36.985 13.3129 37.034 13.1999 37.149C13.0869 37.264 13.0389 37.428 13.0729 37.586C13.6089 40.062 15.5549 43.576 21.7829 46.257C24.3869 47.378 26.7959 47.837 28.9589 47.837C34.3739 47.837 38.2449 44.96 39.7619 42.395C40.2419 41.789 46.5739 33.435 39.2329 24.37C34.8229 18.924 25.9579 14.891 18.1369 11.334ZM38.9999 41.816C38.9829 41.836 38.9679 41.858 38.9539 41.881C37.6539 44.104 31.7779 49.518 22.1609 45.378C16.9029 43.114 14.9059 40.287 14.1999 38.1C16.7419 38.576 19.4269 38.869 22.1949 38.973C22.7209 38.995 23.1749 38.758 23.4449 38.329C23.7309 37.874 23.7579 37.282 23.5139 36.82C23.2909 36.399 22.8739 36.146 22.3689 36.127C19.3019 36.012 16.3489 35.653 13.5909 35.062C13.5779 35.057 13.5649 35.052 13.5509 35.048C6.10991 32.874 4.80391 28.467 4.81891 25.603C8.89491 27.722 13.8199 29.305 19.1179 30.196C19.6349 30.283 20.1179 30.108 20.4409 29.717C20.7829 29.303 20.8859 28.719 20.7039 28.229C20.5369 27.782 20.1559 27.478 19.6569 27.394C14.0299 26.449 9.06891 24.767 4.91191 22.396C1.30391 18.905 1.81191 15.825 2.63891 14.067C6.68791 16.646 11.7119 18.695 17.2099 20.006C17.7209 20.129 18.2129 19.986 18.5619 19.617C18.9309 19.227 19.0729 18.651 18.9239 18.15C18.7879 17.693 18.4269 17.364 17.9359 17.247C11.9759 15.825 6.87191 13.634 2.76591 10.734C0.298911 7.74103 0.932912 3.89303 1.47091 1.99703C3.54091 5.74503 10.1749 8.76303 17.7419 12.205C25.4669 15.719 34.2229 19.702 38.4899 24.972C45.5719 33.716 39.2719 41.489 38.9999 41.816Z" fill="#C8A16D"/>
<path d="M18.1369 11.334L17.3088 13.1545L17.3089 13.1546L18.1369 11.334ZM1.88991 0.519031L3.82155 0.000592306L3.82057 -0.00303553L1.88991 0.519031ZM1.46591 0.166032L1.62461 -1.82766L1.61407 -1.8285L1.60352 -1.82923L1.46591 0.166032ZM0.991912 0.449031L-0.836527 -0.361412L-0.837462 -0.359297L0.991912 0.449031ZM2.07191 11.394L3.62414 10.1328L3.6147 10.1212L3.60508 10.1097L2.07191 11.394ZM2.16191 11.477L3.31882 9.8456L3.31528 9.8431L2.16191 11.477ZM17.7139 18.177L17.2499 20.1225L17.2518 20.1229L17.7139 18.177ZM18.0079 18.423L19.9245 17.8514L19.924 17.8497L18.0079 18.423ZM17.8679 18.96L16.4127 17.588L16.4122 17.5886L17.8679 18.96ZM17.4319 19.076L16.9683 21.0216L16.975 21.0232L17.4319 19.076ZM2.71991 12.981L3.81973 11.3106L3.81523 11.3076L2.71991 12.981ZM2.04091 13.145L3.78101 14.131L3.78204 14.1291L2.04091 13.145ZM4.29291 23.127L5.68119 21.6873L5.67802 21.6843L4.29291 23.127ZM4.38591 23.197L3.38798 24.9303L3.39201 24.9326L4.38591 23.197ZM19.4989 28.338L19.1676 30.3104L19.1701 30.3108L19.4989 28.338ZM19.8089 28.564L21.6816 27.8618L21.681 27.8601L19.8089 28.564ZM19.7049 29.109L18.1667 27.8307L18.1586 27.8406L19.7049 29.109ZM19.2779 29.253L19.6242 27.2832L19.6169 27.282L19.6095 27.2807L19.2779 29.253ZM4.60591 24.406L5.56583 22.6514L5.56449 22.6507L4.60591 24.406ZM4.14991 24.404L3.21129 22.6379L3.20171 22.6431L4.14991 24.404ZM3.89991 24.785L5.89288 24.9527L5.89342 24.946L3.89991 24.785ZM13.2099 35.944L14.0825 34.1444L13.9345 34.0727L13.7768 34.026L13.2099 35.944ZM13.3149 35.98L13.7379 34.0253L13.7376 34.0252L13.3149 35.98ZM22.3329 37.082L22.2581 39.0806L22.2598 39.0807L22.3329 37.082ZM22.6689 37.266L20.8984 38.1963L20.903 38.2049L22.6689 37.266ZM22.6359 37.82L20.9452 36.7517L20.9426 36.7557L22.6359 37.82ZM22.2309 38.018L22.3292 36.0204L22.3174 36.0199L22.3057 36.0194L22.2309 38.018ZM13.6349 37.016L14.0346 35.0564L14.0262 35.0546L14.0176 35.053L13.6349 37.016ZM13.0729 37.586L11.1177 38.0068L11.1182 38.0092L13.0729 37.586ZM21.7829 46.257L22.5737 44.42L22.5737 44.42L21.7829 46.257ZM39.7619 42.395L38.1941 41.1532L38.1097 41.2598L38.0404 41.3769L39.7619 42.395ZM39.2329 24.37L37.6786 25.6287L37.6786 25.6287L39.2329 24.37ZM38.9999 41.816L40.5238 43.1113L40.5307 43.1032L40.5375 43.095L38.9999 41.816ZM38.9539 41.881L37.2455 40.8411L37.2364 40.8562L37.2275 40.8714L38.9539 41.881ZM22.1609 45.378L21.37 47.215L21.3701 47.215L22.1609 45.378ZM14.1999 38.1L14.568 36.1342L11.264 35.5155L12.2966 38.7144L14.1999 38.1ZM22.1949 38.973L22.2785 36.9748L22.27 36.9744L22.1949 38.973ZM23.4449 38.329L25.1376 39.3943L25.1382 39.3934L23.4449 38.329ZM23.5139 36.82L25.2824 35.886L25.2813 35.8839L23.5139 36.82ZM22.3689 36.127L22.4441 34.1284L22.4439 34.1284L22.3689 36.127ZM13.5909 35.062L12.873 36.9287L13.0189 36.9849L13.1719 37.0176L13.5909 35.062ZM13.5509 35.048L12.99 36.9678L13.0015 36.9711L13.5509 35.048ZM4.81891 25.603L5.74144 23.8285L2.83609 22.3181L2.81894 25.5926L4.81891 25.603ZM19.1179 30.196L19.4498 28.2238L19.4496 28.2237L19.1179 30.196ZM20.4409 29.717L21.9828 30.9908L20.4409 29.717ZM20.7039 28.229L22.5788 27.5327L22.5774 27.5291L20.7039 28.229ZM19.6569 27.394L19.9889 25.4218L19.9882 25.4217L19.6569 27.394ZM4.91191 22.396L3.52119 23.8334L3.70222 24.0085L3.92103 24.1333L4.91191 22.396ZM2.63891 14.067L3.71336 12.3802L1.79655 11.1592L0.829157 13.2157L2.63891 14.067ZM17.2099 20.006L17.678 18.0616L17.6738 18.0606L17.2099 20.006ZM18.5619 19.617L17.1091 18.2425L17.1089 18.2427L18.5619 19.617ZM18.9239 18.15L20.8409 17.5799L20.8408 17.5796L18.9239 18.15ZM17.9359 17.247L17.4718 19.1924L17.4723 19.1926L17.9359 17.247ZM2.76591 10.734L1.2226 12.0061L1.39312 12.213L1.61211 12.3677L2.76591 10.734ZM1.47091 1.99703L3.22164 1.03011L0.872998 -3.22241L-0.453129 1.45107L1.47091 1.99703ZM17.7419 12.205L18.57 10.3845L18.57 10.3845L17.7419 12.205ZM38.4899 24.972L36.9355 26.2306L36.9357 26.2308L38.4899 24.972ZM18.9651 9.51355C15.0239 7.72071 11.3393 6.04169 8.50339 4.34076C7.09042 3.49328 5.96419 2.68416 5.15278 1.90868C4.33102 1.12331 3.95183 0.485998 3.82155 0.000593215L-0.041726 1.03747C0.351495 2.50256 1.2878 3.74788 2.3891 4.80041C3.50076 5.86284 4.90515 6.84691 6.44594 7.77105C9.51755 9.61337 13.4329 11.3914 17.3088 13.1545L18.9651 9.51355ZM3.82057 -0.00303553C3.54761 -1.01248 2.66999 -1.74445 1.62461 -1.82766L1.30721 2.15973C0.66383 2.10851 0.126215 1.65855 -0.0407484 1.0411L3.82057 -0.00303553ZM1.60352 -1.82923C0.577673 -1.89998 -0.406965 -1.33054 -0.836526 -0.361412L2.82035 1.25947C2.55479 1.8586 1.94815 2.20404 1.32831 2.16129L1.60352 -1.82923ZM-0.837462 -0.359297C-0.937134 -0.133722 -1.71741 1.68327 -1.94027 4.11973C-2.16388 6.56438 -1.83883 9.83999 0.538741 12.6783L3.60508 10.1097C2.14865 8.37107 1.87671 6.30319 2.0431 4.48408C2.21024 2.65679 2.80696 1.28978 2.82128 1.25736L-0.837462 -0.359297ZM0.519683 12.6552C0.67674 12.8485 0.847082 12.997 1.00855 13.111L3.31528 9.8431C3.40874 9.90907 3.51908 10.0035 3.62414 10.1328L0.519683 12.6552ZM1.00501 13.1085C5.4681 16.2734 10.9476 18.6194 17.2499 20.1225L18.1779 16.2316C12.2702 14.8226 7.28572 12.6587 3.31882 9.8456L1.00501 13.1085ZM17.2518 20.1229C17.1149 20.0904 16.8708 20.0081 16.6216 19.7992C16.3543 19.575 16.1786 19.2862 16.0918 18.9963L19.924 17.8497C19.632 16.8737 18.8458 16.3902 18.1761 16.2312L17.2518 20.1229ZM16.0913 18.9946C15.9926 18.6634 16.0231 18.3832 16.0713 18.1984C16.1209 18.0082 16.2222 17.7901 16.4127 17.588L19.3231 20.3321C19.8971 19.7232 20.1985 18.77 19.9245 17.8514L16.0913 18.9946ZM16.4122 17.5886C16.5828 17.4075 16.836 17.232 17.1633 17.1455C17.4766 17.0627 17.737 17.0933 17.8888 17.1289L16.975 21.0232C17.3058 21.1008 17.7272 21.1338 18.1853 21.0128C18.6573 20.8881 19.0391 20.6335 19.3236 20.3315L16.4122 17.5886ZM17.8955 17.1305C12.4859 15.8414 7.62317 13.8148 3.81973 11.3106L1.62009 14.6515C5.87865 17.4553 11.1899 19.6446 16.9683 21.0216L17.8955 17.1305ZM3.81523 11.3076C3.24538 10.9346 2.5442 10.8112 1.8776 10.9714L2.81223 14.8607C2.40362 14.9589 1.97444 14.8834 1.62459 14.6544L3.81523 11.3076ZM1.8776 10.9714C1.20992 11.1318 0.638176 11.5622 0.299785 12.1609L3.78204 14.1291C3.57365 14.4978 3.2219 14.7622 2.81223 14.8607L1.8776 10.9714ZM0.300814 12.1591C-0.362103 13.3291 -1.08187 15.1574 -0.899528 17.4031C-0.713791 19.6907 0.386894 22.1496 2.90781 24.5698L5.67802 21.6843C3.74293 19.8265 3.18161 18.2404 3.08735 17.0794C2.9897 15.8767 3.37193 14.853 3.78101 14.131L0.300814 12.1591ZM2.90464 24.5667C3.05033 24.7072 3.21343 24.8298 3.38798 24.9303L5.38384 21.4638C5.49239 21.5263 5.59149 21.6009 5.68118 21.6873L2.90464 24.5667ZM3.39201 24.9326C7.89769 27.5128 13.2152 29.3104 19.1676 30.3104L19.8303 26.3657C14.2586 25.4296 9.40614 23.7672 5.37981 21.4615L3.39201 24.9326ZM19.1701 30.3108C19.0319 30.2878 18.7817 30.2223 18.5179 30.0297C18.2348 29.8231 18.0418 29.5469 17.9369 29.2679L21.681 27.8601C21.3235 26.9095 20.5101 26.479 19.8277 26.3652L19.1701 30.3108ZM17.9363 29.2663C17.8149 28.9427 17.8257 28.6596 17.8623 28.4684C17.8998 28.2722 17.9881 28.0457 18.1668 27.8307L21.2431 30.3874C21.7816 29.7393 22.0197 28.7634 21.6816 27.8618L17.9363 29.2663ZM18.1586 27.8406C18.3141 27.651 18.5544 27.4566 18.8788 27.3467C19.1917 27.2408 19.4611 27.2546 19.6242 27.2832L18.9316 31.2228C19.2768 31.2835 19.7071 31.2893 20.1617 31.1354C20.6279 30.9775 20.9907 30.6951 21.2512 30.3775L18.1586 27.8406ZM19.6095 27.2807C14.2993 26.3879 9.44606 24.7743 5.56583 22.6514L3.64599 26.1606C7.98377 28.5338 13.2766 30.2721 18.9463 31.2254L19.6095 27.2807ZM5.56449 22.6507C4.83076 22.25 3.94587 22.2476 3.2113 22.638L5.08852 26.1701C4.63995 26.4085 4.09907 26.408 3.64733 26.1613L5.56449 22.6507ZM3.20171 22.6431C2.46743 23.0385 1.97453 23.7803 1.9064 24.6241L5.89342 24.946C5.85129 25.4677 5.54639 25.9236 5.09811 26.165L3.20171 22.6431ZM1.90695 24.6174C1.75524 26.4209 1.92662 29.0324 3.48882 31.5924C5.07049 34.1842 7.92092 36.4664 12.643 37.862L13.7768 34.026C9.7999 32.8507 7.86633 31.0869 6.90325 29.5087C5.9207 27.8986 5.78658 26.2162 5.89287 24.9527L1.90695 24.6174ZM12.3374 37.7437C12.5182 37.8313 12.7047 37.8943 12.8922 37.9349L13.7376 34.0252C13.8511 34.0498 13.9676 34.0887 14.0825 34.1444L12.3374 37.7437ZM12.8919 37.9348C15.8488 38.5746 18.9999 38.9586 22.2581 39.0806L22.4078 35.0834C19.3639 34.9694 16.447 34.6115 13.7379 34.0253L12.8919 37.9348ZM22.2598 39.0807C22.1221 39.0757 21.866 39.0435 21.5793 38.8866C21.2704 38.7176 21.0401 38.466 20.8984 38.1963L24.4394 36.3358C23.9609 35.4251 23.0881 35.1083 22.406 35.0834L22.2598 39.0807ZM20.903 38.2049C20.74 37.8984 20.7145 37.6155 20.7261 37.4219C20.738 37.2229 20.7962 36.9875 20.9452 36.7517L24.3266 38.8884C24.776 38.1773 24.8875 37.1785 24.4349 36.3272L20.903 38.2049ZM20.9426 36.7557C21.0726 36.5489 21.2839 36.3289 21.5866 36.1801C21.8809 36.0354 22.1518 36.0117 22.3292 36.0204L22.1327 40.0156C22.9643 40.0565 23.819 39.6961 24.3292 38.8844L20.9426 36.7557ZM22.3057 36.0194C19.4139 35.9112 16.6301 35.5858 14.0346 35.0564L13.2352 38.9757C16.0617 39.5522 19.0639 39.9009 22.1561 40.0166L22.3057 36.0194ZM14.0176 35.053C13.2156 34.8966 12.3683 35.1418 11.7733 35.7473L14.6265 38.5508C14.2575 38.9263 13.7362 39.0734 13.2522 38.9791L14.0176 35.053ZM11.7733 35.7473C11.1909 36.34 10.9415 37.188 11.1177 38.0068L15.0282 37.1653C15.1363 37.668 14.9829 38.1881 14.6265 38.5508L11.7733 35.7473ZM11.1182 38.0092C11.8093 41.2017 14.255 45.1939 20.9921 48.0941L22.5737 44.42C16.8548 41.9582 15.4085 38.9223 15.0276 37.1629L11.1182 38.0092ZM20.9921 48.094C23.8298 49.3156 26.507 49.837 28.9589 49.837V45.837C27.0849 45.837 24.9441 45.4404 22.5737 44.42L20.9921 48.094ZM28.9589 49.837C35.0729 49.837 39.6024 46.5936 41.4834 43.4131L38.0404 41.3769C36.8874 43.3265 33.6749 45.837 28.9589 45.837V49.837ZM41.3297 43.6368C41.6585 43.2218 43.5656 40.7028 44.3836 36.9844C45.2224 33.1714 44.8885 28.1758 40.7872 23.1114L37.6786 25.6287C40.9183 29.6292 41.0889 33.3432 40.477 36.125C39.8443 39.0012 38.3454 40.9623 38.1941 41.1532L41.3297 43.6368ZM40.7872 23.1114C38.3483 20.0995 34.7741 17.5822 30.9541 15.4059C27.1159 13.2192 22.8591 11.2846 18.9649 9.51347L17.3089 13.1546C21.2357 14.9405 25.322 16.8008 28.974 18.8814C32.6442 20.9724 35.7075 23.1945 37.6786 25.6287L40.7872 23.1114ZM37.476 40.5207C37.3687 40.647 37.2929 40.7633 37.2455 40.8411L40.6623 42.9209C40.6429 42.9528 40.5971 43.0251 40.5238 43.1113L37.476 40.5207ZM37.2275 40.8714C36.3317 42.4032 31.4609 47.2041 22.9517 43.541L21.3701 47.215C32.0949 51.8319 38.9762 45.8048 40.6804 42.8907L37.2275 40.8714ZM22.9519 43.5411C18.1117 41.457 16.5978 39.0177 16.1032 37.4856L12.2966 38.7144C13.2141 41.5564 15.6941 44.7711 21.37 47.215L22.9519 43.5411ZM13.8318 40.0659C16.4772 40.5612 19.2605 40.8642 22.1198 40.9716L22.27 36.9744C19.5933 36.8739 17.0066 36.5908 14.568 36.1342L13.8318 40.0659ZM22.1113 40.9713C23.3338 41.0224 24.475 40.4471 25.1376 39.3943L21.7522 37.2637C21.8013 37.1858 21.8838 37.1023 21.9974 37.0436C22.1103 36.9852 22.2133 36.972 22.2785 36.9748L22.1113 40.9713ZM25.1382 39.3934C25.7911 38.3546 25.8715 37.0015 25.2824 35.886L21.7454 37.754C21.6892 37.6477 21.6772 37.5535 21.6802 37.4859C21.6834 37.4179 21.7031 37.3419 21.7516 37.2647L25.1382 39.3934ZM25.2813 35.8839C24.7013 34.789 23.6121 34.1724 22.4441 34.1284L22.2937 38.1256C22.2308 38.1232 22.1264 38.1033 22.0111 38.0335C21.8936 37.9624 21.8024 37.8617 21.7465 37.7562L25.2813 35.8839ZM22.4439 34.1284C19.4831 34.0174 16.6458 33.6712 14.01 33.1064L13.1719 37.0176C16.052 37.6348 19.1208 38.0066 22.294 38.1256L22.4439 34.1284ZM14.3089 33.1953C14.307 33.1946 14.2132 33.1572 14.1004 33.125L13.0015 36.9711C12.9545 36.9576 12.9177 36.945 12.8963 36.9373C12.8778 36.9307 12.863 36.9249 12.873 36.9287L14.3089 33.1953ZM14.1118 33.1283C10.7171 32.1365 8.94762 30.7068 8.00839 29.4107C7.06405 28.1075 6.813 26.7376 6.81888 25.6135L2.81894 25.5926C2.80983 27.3324 3.20428 29.598 4.76943 31.7579C6.3397 33.9248 8.94372 35.7856 12.99 36.9678L14.1118 33.1283ZM3.89638 27.3776C8.18581 29.6075 13.3158 31.2483 18.7862 32.1683L19.4496 28.2237C14.324 27.3617 9.60402 25.8366 5.74144 23.8285L3.89638 27.3776ZM18.786 32.1683C19.9788 32.369 21.1866 31.9547 21.9828 30.9908L18.899 28.4433C18.9601 28.3693 19.0536 28.2979 19.1712 28.2553C19.2874 28.2132 19.3877 28.2133 19.4498 28.2238L18.786 32.1683ZM21.9828 30.9908C22.7647 30.0443 23.0172 28.713 22.5788 27.5327L18.8291 28.9254C18.7875 28.8136 18.7878 28.7196 18.7994 28.6536C18.8111 28.5873 18.8403 28.5143 18.899 28.4433L21.9828 30.9908ZM22.5774 27.5291C22.1428 26.3657 21.1405 25.6156 19.9889 25.4218L19.3249 29.3663C19.2644 29.3561 19.1636 29.3234 19.0578 29.239C18.9498 29.1528 18.8722 29.0407 18.8304 28.929L22.5774 27.5291ZM19.9882 25.4217C14.5498 24.5083 9.82049 22.8933 5.90279 20.6587L3.92103 24.1333C8.31733 26.6408 13.51 28.3897 19.3257 29.3664L19.9882 25.4217ZM6.30263 20.9587C4.75325 19.4596 4.23122 18.1967 4.08877 17.2759C3.94389 16.3393 4.15813 15.536 4.44867 14.9184L0.829157 13.2157C0.292693 14.3561 -0.160563 15.9717 0.135798 17.8874C0.4346 19.8189 1.46257 21.8415 3.52119 23.8334L6.30263 20.9587ZM1.56446 15.7539C5.83078 18.4713 11.0685 20.5977 16.746 21.9515L17.6738 18.0606C12.3553 16.7924 7.54505 14.8207 3.71336 12.3802L1.56446 15.7539ZM16.7419 21.9505C17.9261 22.2355 19.1578 21.8976 20.015 20.9913L17.1089 18.2427C17.1726 18.1754 17.2699 18.1097 17.3923 18.0744C17.5135 18.0394 17.6158 18.0466 17.678 18.0616L16.7419 21.9505ZM20.0147 20.9916C20.8585 20.0997 21.2001 18.7876 20.8409 17.5799L17.0069 18.7202C16.9727 18.6053 16.9793 18.5112 16.9954 18.4461C17.0115 18.3807 17.0456 18.3096 17.1091 18.2425L20.0147 20.9916ZM20.8408 17.5796C20.4857 16.3862 19.5322 15.5714 18.3995 15.3015L17.4723 19.1926C17.4117 19.1781 17.3137 19.1386 17.2143 19.0478C17.1128 18.9551 17.0418 18.8375 17.007 18.7205L20.8408 17.5796ZM18.4001 15.3016C12.6349 13.9261 7.77761 11.8252 3.91971 9.10041L1.61211 12.3677C5.96622 15.4429 11.3169 17.7239 17.4718 19.1924L18.4001 15.3016ZM4.30922 9.46195C2.5104 7.2796 2.89163 4.31677 3.39495 2.54299L-0.453129 1.45107C-1.02581 3.46929 -1.91258 8.20247 1.2226 12.0061L4.30922 9.46195ZM-0.279821 2.96395C1.03869 5.35128 3.64149 7.27124 6.54494 8.94777C9.50938 10.6595 13.1571 12.3167 16.9138 14.0255L18.57 10.3845C14.7597 8.65134 11.3069 7.07854 8.54514 5.48379C5.72233 3.85382 3.97313 2.39078 3.22164 1.03011L-0.279821 2.96395ZM16.9138 14.0255C20.7926 15.79 24.8289 17.6276 28.4253 19.6693C32.0424 21.7228 35.0387 23.8879 36.9355 26.2306L40.0443 23.7135C37.6741 20.7862 34.1589 18.3247 30.4001 16.1908C26.6204 14.045 22.4162 12.1341 18.57 10.3845L16.9138 14.0255ZM36.9357 26.2308C40.0447 30.0694 40.1542 33.5483 39.5558 36.0925C38.9333 38.7392 37.5069 40.4835 37.4623 40.5371L40.5375 43.095C40.765 42.8216 42.6245 40.5159 43.4495 37.0083C44.2986 33.3983 44.0171 28.6187 40.0441 23.7133L36.9357 26.2308Z" fill="#C6A06C" mask="url(#path-4-inside-1)"/>
</svg>
