<svg width="66" height="54" viewBox="0 0 66 54" fill="none" xmlns="http://www.w3.org/2000/svg">
<path d="M45.8633 9.28367V9.78367H46.3633H54.0997C60.2447 9.78367 65.2043 14.7432 65.2043 20.8883V42.3954C65.2043 48.5405 60.2447 53.5 54.0997 53.5H12.5553C6.41021 53.5 1.45068 48.5405 1.45068 42.3954V20.8883C1.45068 14.7432 6.41021 9.78367 12.5553 9.78367H20.2917H20.7917V9.28367V7.73639C20.7917 3.75752 24.0492 0.5 28.028 0.5H38.6269C42.6058 0.5 45.8633 3.75752 45.8633 7.73639V9.28367ZM41.7988 9.78367H42.2988V9.28367V7.73639C42.2988 5.75824 40.6824 4.14183 38.7043 4.14183H28.028C26.0499 4.14183 24.4335 5.75824 24.4335 7.73639V9.28367V9.78367H24.9335H41.7988ZM20.2917 49.8582H20.7917V49.3582V13.9255V13.4255H20.2917H12.5553C8.41093 13.4255 5.09252 16.7439 5.09252 20.8883V42.3954C5.09252 46.5398 8.41093 49.8582 12.5553 49.8582H20.2917ZM41.7988 49.8582H42.2988V49.3582V13.9255V13.4255H41.7988H24.9335H24.4335V13.9255V49.3582V49.8582H24.9335H41.7988ZM45.8633 49.3582V49.8582H46.3633H54.0997C58.244 49.8582 61.5624 46.5398 61.5624 42.3954V20.8883C61.5624 16.7439 58.244 13.4255 54.0997 13.4255H46.3633H45.8633V13.9255V49.3582Z" fill="#C6A06C" stroke="white"/>
</svg>
