<svg width="45" height="38" viewBox="0 0 45 38" fill="none" xmlns="http://www.w3.org/2000/svg">
<path d="M11.6915 0C6.64202 0 0 4.44409 0 13.4118C0 17.4702 2.15204 21.3449 5.25206 24.8902C8.35209 28.4355 12.4436 31.6776 16.5326 34.4505C16.7466 34.5938 17.0086 34.6467 17.2615 34.5976C17.5144 34.5484 17.7375 34.4013 17.8823 34.1882C18.027 33.9751 18.0816 33.7134 18.0341 33.4602C17.9866 33.207 17.8408 32.9829 17.6287 32.8368C13.6264 30.1228 9.65694 26.9602 6.72873 23.6114C3.80052 20.2626 1.94859 16.7685 1.94859 13.4118C1.94859 5.39891 7.78739 1.94859 11.6915 1.94859C16.9505 1.94859 19.8057 4.42086 21.5715 7.32244C21.6579 7.46752 21.7804 7.58768 21.9272 7.67112C22.074 7.75457 22.24 7.79844 22.4088 7.79844C22.5776 7.79844 22.7436 7.75457 22.8904 7.67112C23.0371 7.58768 23.1597 7.46752 23.2461 7.32244C25.0119 4.42086 27.8671 1.94859 33.126 1.94859C37.0302 1.94859 42.869 5.39891 42.869 13.4118C42.869 17.5164 40.074 21.8369 35.988 25.8188C32.0392 29.6672 26.9618 33.1329 22.3936 35.8662C22.073 35.6743 21.7443 35.4871 21.4193 35.2878C21.3103 35.2158 21.1879 35.1665 21.0595 35.1427C20.931 35.119 20.7991 35.1213 20.6716 35.1495C20.5441 35.1778 20.4235 35.2314 20.3171 35.3072C20.2107 35.3829 20.1206 35.4793 20.0522 35.5906C19.9838 35.7019 19.9385 35.8258 19.9189 35.9549C19.8994 36.0841 19.906 36.2159 19.9384 36.3424C19.9707 36.4689 20.0282 36.5877 20.1074 36.6916C20.1866 36.7955 20.2859 36.8824 20.3993 36.9471C20.908 37.259 21.4097 37.5667 21.9064 37.8605C22.0581 37.9518 22.2318 38 22.4088 38C22.5858 38 22.7595 37.9518 22.9112 37.8605C27.6802 35.0394 33.091 31.3627 37.3581 27.2042C41.6253 23.0456 44.8176 18.3744 44.8176 13.4118C44.8176 4.44409 38.1756 0 33.126 0C27.908 0 24.5308 2.36944 22.4088 5.20639C20.2868 2.36944 16.9096 0 11.6915 0ZM5.26728 10.2149C5.05834 10.2336 4.86104 10.3193 4.7047 10.4592C4.54836 10.5991 4.44134 10.7857 4.39955 10.9913C3.57679 14.8096 5.80728 18.534 7.93137 20.6581C8.02169 20.751 8.12963 20.8249 8.24887 20.8756C8.36812 20.9263 8.49627 20.9527 8.62583 20.9532C8.75539 20.9538 8.88377 20.9285 9.00344 20.8788C9.12311 20.8292 9.23167 20.7562 9.32278 20.664C9.41389 20.5719 9.48571 20.4626 9.53404 20.3423C9.58237 20.2221 9.60625 20.0935 9.60426 19.9639C9.60228 19.8344 9.57448 19.7065 9.52249 19.5879C9.4705 19.4692 9.39536 19.3621 9.30148 19.2728C7.52839 17.4997 5.71455 14.2014 6.3177 11.4023C6.35242 11.2512 6.35059 11.094 6.31236 10.9438C6.27413 10.7935 6.2006 10.6546 6.09788 10.5384C5.99516 10.4223 5.86621 10.3324 5.72175 10.2761C5.57729 10.2198 5.42149 10.1988 5.26728 10.2149Z" fill="#C6A06C"/>
</svg>
