<svg width="29" height="52" viewBox="0 0 29 52" fill="none" xmlns="http://www.w3.org/2000/svg">
<path d="M24.8444 0H4.04444C1.79111 0 0 1.79111 0 4.04444V47.9556C0 50.2089 1.79111 52 4.04444 52H24.8444C27.0978 52 28.8889 50.2089 28.8889 47.9556V4.04444C28.8889 1.79111 27.0978 0 24.8444 0ZM2.31111 9.24444H26.5778V42.7556H2.31111V9.24444ZM4.04444 2.31111H24.8444C25.8267 2.31111 26.5778 3.06222 26.5778 4.04444V6.93333H2.31111V4.04444C2.31111 3.06222 3.06222 2.31111 4.04444 2.31111ZM24.8444 49.6889H4.04444C3.06222 49.6889 2.31111 48.9378 2.31111 47.9556V45.0667H26.5778V47.9556C26.5778 48.9378 25.8267 49.6889 24.8444 49.6889ZM11.5556 4.62222C11.5556 3.98667 12.0756 3.46667 12.7111 3.46667H16.1778C16.8133 3.46667 17.3333 3.98667 17.3333 4.62222C17.3333 5.25778 16.8133 5.77778 16.1778 5.77778H12.7111C12.0756 5.77778 11.5556 5.25778 11.5556 4.62222ZM15.6 47.3778C15.6 48.0133 15.08 48.5333 14.4444 48.5333C13.8089 48.5333 13.2889 48.0133 13.2889 47.3778C13.2889 46.7422 13.8089 46.2222 14.4444 46.2222C15.08 46.2222 15.6 46.7422 15.6 47.3778Z" fill="#C6A06C"/>
</svg>
