<svg width="70" height="54" viewBox="0 0 70 54" fill="none" xmlns="http://www.w3.org/2000/svg">
<path d="M26.9347 0.576941C26.7261 0.58668 26.5214 0.637427 26.3324 0.726282C26.1433 0.815138 25.9736 0.940362 25.833 1.0948C25.6924 1.24924 25.5835 1.42988 25.5127 1.62638C25.4419 1.82289 25.4105 2.03143 25.4202 2.24008C25.43 2.44873 25.4808 2.65341 25.5697 2.84244C25.6586 3.03146 25.7838 3.20112 25.9383 3.34172C26.0928 3.48233 26.2734 3.59114 26.47 3.66192C26.6665 3.7327 26.875 3.76407 27.0837 3.75425H33.4383V6.98121C16.6041 7.80602 3.25384 21.6624 3.25384 38.7047V45.0593C3.25388 45.4806 3.42127 45.8847 3.71919 46.1826C4.01712 46.4805 4.42117 46.6479 4.8425 46.648H7.99499C8.2055 46.6509 8.41451 46.612 8.60986 46.5335C8.80522 46.455 8.98302 46.3385 9.13294 46.1907C9.28286 46.0429 9.40191 45.8667 9.48316 45.6725C9.56442 45.4783 9.60626 45.2698 9.60626 45.0593C9.60626 44.8488 9.56442 44.6403 9.48316 44.4461C9.40191 44.2519 9.28286 44.0757 9.13294 43.9279C8.98302 43.7801 8.80522 43.6636 8.60986 43.5851C8.41451 43.5066 8.2055 43.4677 7.99499 43.4706H6.43115V38.7047C6.43115 22.8351 19.1574 10.1089 35.027 10.1089C50.8965 10.1089 63.6228 22.8351 63.6228 38.7047V43.4706H14.4241C14.2136 43.4677 14.0046 43.5066 13.8092 43.5851C13.6138 43.6636 13.436 43.7801 13.2861 43.9279C13.1362 44.0757 13.0172 44.2519 12.9359 44.4461C12.8546 44.6403 12.8128 44.8488 12.8128 45.0593C12.8128 45.2698 12.8546 45.4783 12.9359 45.6725C13.0172 45.8667 13.1362 46.0429 13.2861 46.1907C13.436 46.3385 13.6138 46.455 13.8092 46.5335C14.0046 46.612 14.2136 46.6509 14.4241 46.648H65.2114C65.6327 46.6479 66.0368 46.4805 66.3347 46.1826C66.6326 45.8847 66.8 45.4806 66.8001 45.0593V38.7047C66.8001 21.6624 53.4498 7.80602 36.6156 6.98121V3.75425H42.9702C43.1807 3.75723 43.3898 3.71834 43.5851 3.63984C43.7805 3.56133 43.9583 3.44479 44.1082 3.29697C44.2581 3.14916 44.3772 2.97302 44.4584 2.77879C44.5397 2.58457 44.5815 2.37613 44.5815 2.1656C44.5815 1.95506 44.5397 1.74662 44.4584 1.5524C44.3772 1.35817 44.2581 1.18204 44.1082 1.03422C43.9583 0.886406 43.7805 0.769861 43.5851 0.691359C43.3898 0.612857 43.1807 0.573965 42.9702 0.576941H27.0837C27.0341 0.574613 26.9844 0.574613 26.9347 0.576941ZM1.51625 49.8253C1.3076 49.835 1.1029 49.8857 0.913864 49.9746C0.724824 50.0635 0.55514 50.1887 0.414501 50.3431C0.273862 50.4976 0.165024 50.6782 0.0942029 50.8747C0.0233815 51.0712 -0.0080361 51.2797 0.00174446 51.4884C0.011525 51.6971 0.062312 51.9017 0.151205 52.0908C0.240098 52.2798 0.365357 52.4494 0.519826 52.59C0.674295 52.7307 0.854949 52.8395 1.05147 52.9102C1.24799 52.981 1.45654 53.0124 1.66519 53.0026H68.3887C68.5992 53.0056 68.8082 52.9667 69.0036 52.8882C69.199 52.8097 69.3768 52.6931 69.5267 52.5453C69.6766 52.3975 69.7956 52.2213 69.8769 52.0271C69.9582 51.8329 70 51.6245 70 51.4139C70 51.2034 69.9582 50.9949 69.8769 50.8007C69.7956 50.6065 69.6766 50.4304 69.5267 50.2825C69.3768 50.1347 69.199 50.0182 69.0036 49.9397C68.8082 49.8612 68.5992 49.8223 68.3887 49.8253H1.66519C1.61557 49.8229 1.56587 49.8229 1.51625 49.8253Z" fill="#C6A06C"/>
</svg>
