<svg width="50" height="33" viewBox="0 0 50 33" fill="none" xmlns="http://www.w3.org/2000/svg">
<path d="M32.3138 15.359H25.9308V8.97606C25.9308 8.46197 25.5141 8.04521 25 8.04521C24.4859 8.04521 24.0691 8.46197 24.0691 8.97606V15.359H17.6862C17.1721 15.359 16.7553 15.7758 16.7553 16.2899C16.7553 16.804 17.1721 17.2207 17.6862 17.2207H24.0691V23.6037C24.0691 24.1178 24.4859 24.5346 25 24.5346C25.5141 24.5346 25.9308 24.1178 25.9308 23.6037V17.2207H32.3138C32.8279 17.2207 33.2447 16.804 33.2447 16.2899C33.2447 15.7758 32.8279 15.359 32.3138 15.359Z" fill="#D0A770"/>
<path d="M46.4096 0H3.59043C1.61064 0 0 1.61064 0 3.59043V28.9894C0 30.9691 1.61064 32.5798 3.59043 32.5798H46.4096C48.3894 32.5798 50 30.9691 50 28.9894V3.59043C50 1.61064 48.3894 0 46.4096 0ZM48.1383 28.9894C48.1383 29.9426 47.3628 30.7181 46.4096 30.7181H3.59043C2.63723 30.7181 1.8617 29.9426 1.8617 28.9894V3.59043C1.8617 2.63723 2.63723 1.8617 3.59043 1.8617H46.4096C47.3628 1.8617 48.1383 2.63723 48.1383 3.59043V28.9894Z" fill="#D0A770"/>
</svg>
