<svg width="38" height="42" viewBox="0 0 38 42" fill="none" xmlns="http://www.w3.org/2000/svg">
<path d="M19.8484 20.6001V10.1079C19.8484 9.56342 19.4083 9.12329 18.8638 9.12329C18.3203 9.12329 17.8792 9.56342 17.8792 10.1079V21.0008C17.8792 21.0451 17.8988 21.0816 17.9038 21.1239C17.9146 21.2066 17.9215 21.2913 17.953 21.3681C17.9845 21.4468 18.0357 21.5118 18.0849 21.5758C18.1115 21.6123 18.1243 21.6526 18.1558 21.6841L22.371 26.0362C22.565 26.2341 22.821 26.3355 23.079 26.3355C23.3271 26.3355 23.5732 26.242 23.7633 26.0588C24.1532 25.6797 24.165 25.0565 23.7859 24.6666L19.8484 20.6001Z" fill="#C6A06C"/>
<path d="M30.6676 6.27698C26.8808 3.2404 22.1556 1.8058 17.3201 2.20162C16.7076 0.905854 15.3961 0 13.8699 0C11.7609 0 10.0447 1.71522 10.0447 3.82526C10.0447 5.93335 11.7609 7.65053 13.8699 7.65053C15.8648 7.65053 17.4904 6.10861 17.6607 4.1561C21.9232 3.85382 26.0921 5.13285 29.4369 7.81398C36.7083 13.6449 37.879 24.3025 32.0481 31.573C31.7094 31.9993 31.7773 32.6186 32.2017 32.9573C32.3828 33.1011 32.5995 33.173 32.8171 33.173C33.1056 33.173 33.3901 33.0479 33.5861 32.8057C40.0954 24.6865 38.7868 12.7863 30.6676 6.27698Z" fill="#C6A06C"/>
<path d="M23.8578 34.3505C21.862 34.3505 20.2364 35.8924 20.065 37.845C15.8016 38.1462 11.6357 36.8702 8.28991 34.1871C1.01846 28.3561 -0.153241 17.6966 5.6777 10.4271C6.0174 10.0018 5.94946 9.38242 5.52509 9.04273C5.10071 8.70303 4.48138 8.76999 4.1407 9.19436C-2.36865 17.3116 -1.06008 29.2137 7.05815 35.7231C10.4354 38.4308 14.559 39.8733 18.8352 39.8733C19.3561 39.8733 19.8829 39.8408 20.4057 39.7965C21.0191 41.0942 22.3307 42.0001 23.8578 42.0001C25.9679 42.0001 27.6831 40.2849 27.6831 38.1748C27.6831 36.0677 25.9659 34.3505 23.8578 34.3505Z" fill="#C6A06C"/>
</svg>
