<svg width="36" height="36" viewBox="0 0 36 36" fill="none" xmlns="http://www.w3.org/2000/svg">
<path d="M24.9829 9.57582C25.3308 9.86203 25.3794 10.3747 25.0913 10.7202L11.9462 26.5102C11.7847 26.7045 11.5513 26.8049 11.3163 26.8049C11.1327 26.8049 10.948 26.7439 10.7955 26.6179C10.4476 26.3317 10.399 25.8191 10.6872 25.4735L23.8323 9.68356C24.1192 9.338 24.6351 9.28922 24.9829 9.57582ZM12.852 9.20628C14.586 9.20628 16.0441 10.4434 16.3187 12.1484C16.6257 14.0518 15.3189 15.8483 13.4051 16.1536C13.2199 16.1833 13.0319 16.1979 12.8455 16.1979C11.1115 16.1979 9.653 14.9604 9.37831 13.2554C9.22952 12.3338 9.45066 11.4093 10.0009 10.6532C10.5511 9.89699 11.3649 9.39857 12.2916 9.251C12.4772 9.22092 12.6656 9.20628 12.852 9.20628ZM12.852 10.8324C12.7519 10.8324 12.6505 10.8406 12.5507 10.8564C12.0553 10.9353 11.6204 11.202 11.3261 11.6065C11.0314 12.011 10.9132 12.5053 10.9929 12.9985C11.1556 14.0087 12.1199 14.712 13.1471 14.5482C14.1703 14.3852 14.8693 13.4237 14.7053 12.4057C14.5578 11.4943 13.7787 10.8324 12.852 10.8324ZM23.1549 19.9995C24.8893 19.9995 26.3474 21.2366 26.6221 22.9416C26.9291 24.8442 25.6223 26.6411 23.7084 26.9468C23.5232 26.9765 23.3348 26.9911 23.1484 26.9911C21.4144 26.9911 19.9564 25.7536 19.6817 24.0486C19.5329 23.1266 19.754 22.2025 20.3042 21.4463C20.8544 20.6902 21.6679 20.1918 22.5949 20.0442C22.7805 20.0141 22.969 19.9995 23.1549 19.9995ZM23.1549 21.6256C23.0552 21.6256 22.9538 21.6338 22.8541 21.6496C22.3583 21.7285 21.9233 21.9952 21.629 22.3997C21.3347 22.8042 21.2166 23.2985 21.2963 23.7917C21.4434 24.7035 22.2226 25.3654 23.1488 25.3654C23.2486 25.3654 23.3499 25.3572 23.4497 25.3414C24.4728 25.1779 25.1722 24.2169 25.0079 23.1989C24.8611 22.2875 24.082 21.6256 23.1549 21.6256ZM18.0004 0.196581C17.5491 0.196581 17.1829 0.560839 17.1829 1.00966C17.1829 1.45848 17.5491 1.82273 18.0004 1.82273C27.0239 1.82273 34.3653 9.12416 34.3653 18.0985C34.3653 27.0728 27.0239 34.3747 18.0004 34.3747C8.9769 34.3747 1.63547 27.0732 1.63547 18.0985C1.63547 11.8671 5.25182 6.19546 10.7902 3.48588L10.1848 5.24294C10.0385 5.66777 10.2657 6.13041 10.6929 6.27555C10.7808 6.30563 10.8703 6.31986 10.9578 6.31986C11.2975 6.31986 11.6147 6.10765 11.7312 5.76981L12.9354 2.27521C13.0817 1.85038 12.8545 1.38774 12.4273 1.2426L8.91355 0.0449423C8.48516 -0.102631 8.02121 0.125437 7.87528 0.550269C7.72894 0.975102 7.95622 1.43774 8.38338 1.58288L9.90848 2.10284C3.90657 5.11366 0 11.3044 0 18.0981C0 27.9692 8.07476 36 18 36C27.9252 36 36 27.9692 36 18.0981C36 8.22693 27.9256 0.196581 18.0004 0.196581Z" fill="#D0A770"/>
</svg>
