<svg width="30" height="35" viewBox="0 0 30 35" fill="none" xmlns="http://www.w3.org/2000/svg">
<path d="M14.9872 34.4593C14.7177 34.4581 14.4504 34.41 14.1974 34.3171C11.9858 33.5272 4.52972 30.3995 1.74949 23.7806C-0.319888 18.852 -0.0987327 10.7799 0.169813 7.54154C0.169813 6.13562 1.54413 5.61433 2.176 5.37738C4.87725 4.31899 11.6541 1.55456 13.913 0.290814C14.2617 0.100007 14.6529 0 15.0504 0C15.4479 0 15.839 0.100007 16.1878 0.290814C18.4941 1.55456 25.1761 4.3032 27.8616 5.36158C28.3755 5.48049 28.8424 5.74988 29.2026 6.13536C29.5627 6.52083 29.7998 7.00489 29.8836 7.52574C30.0731 10.7641 30.2943 18.8362 28.2249 23.7648C25.4447 30.3837 18.036 33.4957 15.8402 34.3013C15.5688 34.4086 15.2791 34.4622 14.9872 34.4593ZM14.9872 1.58615C14.8551 1.58739 14.7252 1.61987 14.6081 1.68093C12.207 2.99206 5.50913 5.72491 2.6973 6.89387C1.86007 7.2098 1.6863 7.43096 1.67051 7.68371C1.49674 10.8431 1.27559 18.5993 3.25019 23.2277C5.77767 29.2463 12.7283 32.1371 14.766 32.8796C14.9286 32.943 15.109 32.943 15.2715 32.8796C17.3251 32.1371 24.2125 29.2463 26.74 23.2277C28.6672 18.5993 28.4619 10.8115 28.3197 7.68371C28.3197 7.43096 28.1301 7.2256 27.3087 6.89387C24.4653 5.7723 17.8306 3.03945 15.4453 1.72832C15.3097 1.63727 15.1505 1.58785 14.9872 1.58615Z" fill="#D0A770"/>
<path d="M13.4075 21.9008C13.296 21.8906 13.1878 21.8572 13.0898 21.8028C12.9919 21.7484 12.9064 21.6742 12.8388 21.5849L9.67946 17.3671C9.55377 17.1996 9.4998 16.9889 9.52943 16.7815C9.55905 16.5742 9.66984 16.3871 9.83742 16.2614C10.0064 16.1397 10.216 16.0882 10.4221 16.1176C10.6283 16.1471 10.815 16.2552 10.9432 16.4193L13.5655 19.9262L21.3059 12.6439C21.3793 12.5699 21.4667 12.5111 21.5629 12.471C21.6592 12.4309 21.7624 12.4103 21.8667 12.4103C21.9709 12.4103 22.0742 12.4309 22.1704 12.471C22.2667 12.5111 22.354 12.5699 22.4275 12.6439C22.501 12.716 22.5594 12.802 22.5993 12.8969C22.6392 12.9919 22.6598 13.0938 22.6598 13.1968C22.6598 13.2998 22.6392 13.4017 22.5993 13.4967C22.5594 13.5916 22.501 13.6776 22.4275 13.7497L13.992 21.6481C13.9168 21.7277 13.8263 21.7912 13.7258 21.8347C13.6253 21.8781 13.517 21.9006 13.4075 21.9008Z" fill="#D0A770"/>
</svg>
