<svg width="49" height="30" viewBox="0 0 49 30" fill="none" xmlns="http://www.w3.org/2000/svg">
<path d="M4.85454 12.1636L0 14.1273L9.92727 22.9636L25.1455 18L21.3818 30L27.8182 27.3818L33.8727 15.1636L45.2727 11.4545C45.8989 11.2821 46.483 10.983 46.9889 10.5757C47.4948 10.1685 47.9117 9.66165 48.2138 9.08672C48.5159 8.51178 48.6968 7.88095 48.7453 7.23328C48.7937 6.58562 48.7087 5.9349 48.4955 5.32142C48.2822 4.70794 47.9454 4.14476 47.5057 3.66675C47.066 3.18873 46.5329 2.80606 45.9393 2.54243C45.3457 2.27879 44.7044 2.1398 44.0549 2.13407C43.4055 2.12834 42.7618 2.25598 42.1636 2.50909L31.0364 6.6L15.4909 0L9 2.61818L21.2182 10.8L11.0727 15.2182L4.85454 12.1636ZM27.0545 26.5636L23.1273 28.1455L26.4545 17.6182L32.4545 15.6545L27.0545 26.5636ZM11.3455 2.83636L15.4909 1.14545L30.9818 7.8L42.5455 3.54545C43.0077 3.3359 43.5085 3.22492 44.016 3.21958C44.5235 3.21424 45.0265 3.31466 45.493 3.51444C45.9596 3.71422 46.3794 4.00898 46.7257 4.37994C47.0721 4.75091 47.3373 5.18994 47.5047 5.66908C47.672 6.14822 47.7377 6.65695 47.6975 7.16288C47.6574 7.6688 47.5123 8.16082 47.2716 8.60759C47.0308 9.05436 46.6997 9.44609 46.2992 9.75782C45.8987 10.0695 45.4376 10.2944 44.9455 10.4182L10.2 21.7636L2.01818 14.5091L4.8 13.3636L11.0182 16.4727L23.5091 11.0182L11.3455 2.83636Z" fill="#D0A770"/>
</svg>
