<svg width="38" height="38" viewBox="0 0 38 38" fill="none" xmlns="http://www.w3.org/2000/svg">
<path d="M37.4935 0.506517C36.8181 -0.168839 35.7265 -0.168839 35.0512 0.506517L27.4634 8.09434C25.1248 6.27554 22.1937 5.18219 19 5.18219C11.3691 5.18219 5.18213 11.3692 5.18213 19.0002C5.18213 22.1939 6.27547 25.1251 8.09425 27.4638L0.506511 35.0516C-0.168837 35.7269 -0.168837 36.8186 0.506511 37.4939C0.843322 37.8307 1.28549 38 1.72767 38C2.16984 38 2.61201 37.8307 2.94882 37.4939L10.5366 29.9061C12.877 31.7249 15.8063 32.8182 19 32.8182C26.6309 32.8182 32.8179 26.6312 32.8179 19.0002C32.8179 15.8065 31.7245 12.8771 29.9057 10.5367L37.4935 2.94885C38.1688 2.2735 38.1688 1.18187 37.4935 0.506517ZM8.6366 19.0002C8.6366 13.2847 13.2846 8.6367 19 8.6367C21.235 8.6367 23.3008 9.35523 24.9952 10.5626L10.5625 24.9955C9.35513 23.3011 8.6366 21.2353 8.6366 19.0002ZM29.3634 19.0002C29.3634 24.7157 24.7154 29.3637 19 29.3637C16.765 29.3637 14.6992 28.6452 13.0048 27.4378L27.4375 13.0049C28.6449 14.6994 29.3634 16.7652 29.3634 19.0002Z" fill="#C6A06C"/>
</svg>
